
        <svg xmlns="http://www.w3.org/2000/svg" xmlns:xlink="http://www.w3.org/1999/xlink" version="1.1" width="2830.494055499242" height="3164.0866119129996" viewBox="0 0 2830.494055499242 3164.0866119129996">
			
			<g transform="scale(8.204330595649978) translate(10, 10)">
				<defs id="SvgjsDefs1637"/><g id="SvgjsG1638" featureKey="MI9fam-0" transform="matrix(0.004271671641940473,0,0,0.004271671641940473,34.84302425383407,-34.75084765984145)" fill="#000"><defs xmlns="http://www.w3.org/2000/svg"/><g xmlns="http://www.w3.org/2000/svg"><path class="fil0" d="M46711 9257c0,-8 -1,-16 -1,-25 -32,-55 -105,-116 -201,-172 -114,-65 -250,-112 -385,-124l-7 -1c-105,-8 -206,6 -288,51 -68,37 -124,78 -169,122 -198,190 -242,487 -196,818 55,398 235,837 452,1232 74,136 152,265 231,385 -11,-318 10,-647 71,-973 83,-451 242,-899 495,-1313zm-34271 37604c-5,3 -11,6 -16,8 -3766,2123 -7479,3705 -11157,4975 -208,72 -435,-39 -506,-247 -72,-208 39,-435 247,-506 3635,-1255 7305,-2819 11028,-4918 7,-4 14,-8 21,-12 10,-6 21,-12 32,-17 415,-235 831,-476 1247,-724 4085,-2436 8238,-5546 12484,-9629 -31,-28 -58,-62 -80,-100 -246,-440 -529,-1143 -723,-1911 -188,-744 -294,-1559 -210,-2277 93,-787 410,-1463 1081,-1839 157,-88 333,-158 528,-207 342,-86 690,-50 1010,64 328,117 630,317 864,546 188,185 337,394 426,601 579,-292 1174,-331 1704,-191 266,70 515,186 736,337 586,-585 1115,-1121 1646,-1668 515,-531 1037,-1078 1622,-1697 -75,-31 -140,-86 -186,-161 -215,-353 -466,-918 -646,-1538 -176,-605 -287,-1269 -239,-1859 54,-660 301,-1235 857,-1573 130,-79 276,-143 437,-190 290,-84 587,-64 861,22 280,88 540,247 742,432 141,129 259,276 342,426 454,-230 926,-270 1353,-173 177,40 345,104 502,188 515,-591 1032,-1197 1549,-1814 489,-584 963,-1164 1420,-1736 -263,-275 -598,-728 -880,-1243 -278,-506 -510,-1081 -585,-1624 -84,-610 24,-1182 461,-1601 103,-99 223,-187 360,-263 246,-135 517,-178 781,-157l12 1c271,23 539,115 760,242 145,83 274,184 376,294 360,-285 769,-411 1167,-410 317,1 625,83 892,230 267,-401 515,-785 740,-1149 213,-345 417,-689 610,-1030 -26,-17 -51,-37 -73,-60 -245,-255 -559,-678 -822,-1159 -257,-469 -473,-1002 -543,-1507 -79,-571 23,-1107 434,-1502 97,-93 209,-176 338,-247 232,-127 488,-168 737,-148l12 1c255,22 506,108 713,227 127,73 241,160 334,256 332,-255 707,-368 1072,-367 313,1 616,86 875,237 263,153 485,376 631,649 186,349 248,774 115,1236 -2,10 -5,19 -8,29 105,42 209,98 308,167 197,137 382,326 512,547 129,220 205,472 189,737 -9,147 -35,284 -78,411 -181,542 -621,865 -1170,1038 -484,153 -1058,187 -1592,155 -514,-30 -1001,-122 -1336,-225 -179,313 -372,637 -578,971 -263,425 -535,848 -815,1267 40,57 76,116 109,177 198,372 264,825 122,1318 -5,20 -11,40 -20,59 122,45 244,110 359,190 210,146 407,348 545,583 137,234 217,500 201,781 -9,157 -38,304 -83,439 -2,7 -5,15 -8,22 -197,563 -662,899 -1240,1082 -521,165 -1140,201 -1716,167 -591,-35 -1150,-145 -1511,-265 -34,-11 -66,-27 -95,-46 -460,575 -934,1154 -1418,1733 -490,586 -1008,1191 -1547,1811 157,196 276,422 345,667 120,433 84,920 -178,1403 -12,24 -26,48 -43,70l-16 22c129,79 254,183 367,305 185,201 345,459 435,739 88,276 110,573 28,862 -46,160 -109,306 -189,438 -335,558 -909,808 -1568,865 -592,51 -1257,-56 -1862,-228 -573,-163 -1100,-388 -1457,-590 -547,578 -1046,1101 -1548,1619 -528,544 -1056,1080 -1644,1666 172,235 300,503 369,792 127,528 58,1116 -287,1686l-1 0c-10,16 -20,31 -32,46 -30,37 -61,74 -91,110 181,103 358,253 512,433 213,248 392,562 487,898 92,327 105,676 -4,1012 -62,192 -144,362 -242,513 -420,645 -1114,916 -1904,957 -723,37 -1529,-124 -2259,-360 -754,-244 -1436,-573 -1859,-848 -61,-39 -107,-93 -138,-153 -2963,2841 -5883,5214 -8767,7220 3965,-1529 8710,-2894 13441,-3805 1827,-352 3653,-636 5432,-837 534,-87 1034,-139 1502,-153 2115,-267 2632,-1165 3218,-2184 356,-619 735,-1277 1441,-1902 330,-292 1367,-848 2269,-1120 710,-214 1382,-257 1734,90 125,124 223,277 284,432 67,172 92,356 62,519 -77,426 -326,943 -621,1425 -392,640 -879,1242 -1135,1462 -554,477 -1245,842 -1977,1116 865,29 1697,90 2490,186 28,-2 56,-1 84,3 777,116 1878,-71 2442,-167l134 -22c2152,-358 4253,-195 6084,373 1909,592 3529,1627 4619,2975 146,181 223,374 240,564 15,156 -11,305 -72,440 -59,133 -151,249 -268,344 -163,132 -379,220 -628,243 -1673,157 -2927,144 -4109,-127 -1185,-271 -2280,-795 -3631,-1660l-22 -14c-1266,-810 -2650,-1696 -4023,-2025 -523,-87 -1067,-156 -1630,-208 1018,497 1979,1160 2851,1936 1935,1723 3431,4010 4107,6263l0 0 4 12 0 0 0 1c102,352 68,665 -62,917 -137,264 -372,451 -663,539l0 0 -8 2 0 0 -1 0c-1694,493 -3325,-164 -4751,-1316 -1979,-1599 -3569,-4174 -4333,-5861 -487,-1075 -1147,-1763 -2022,-2122 -569,-233 -1237,-334 -2014,-318l-27 2 -13 2c-12,1 -24,2 -37,3 -2199,193 -4496,528 -6798,972 -7121,1371 -14264,3775 -18665,6209zm35187 -37520c-340,407 -536,886 -626,1372 -81,439 -76,884 -11,1291 403,-161 786,-353 1125,-598 434,-313 802,-718 1055,-1263 65,-241 35,-455 -56,-626 -74,-138 -189,-253 -328,-333 -143,-83 -307,-130 -475,-131 -233,-1 -477,87 -685,288zm954 2712c-306,221 -636,404 -979,559 168,25 348,45 535,56 449,26 923,0 1308,-121 319,-101 568,-267 655,-526 20,-60 33,-128 37,-205 6,-99 -26,-198 -80,-290 -69,-117 -169,-219 -277,-294 -94,-65 -182,-105 -246,-109 -7,3 -14,7 -21,10 -265,367 -581,668 -932,921zm-6416 3718c-1,-16 -1,-32 -1,-48l-2 1c0,0 0,0 0,0 -36,-66 -121,-140 -234,-204 -128,-73 -280,-126 -432,-139l-7 -1c-121,-9 -237,7 -333,60 -76,42 -139,88 -191,138 -224,215 -274,547 -223,917 60,436 257,917 495,1349 103,187 212,364 320,523 -22,-381 -2,-778 71,-1172 90,-489 263,-975 538,-1423zm-1 -48c0,-6 1,-12 1,-17 1,-13 -2,16 -3,18l2 -1zm936 108c-374,448 -590,973 -689,1507 -92,496 -82,998 -5,1455 454,-178 886,-393 1268,-669 476,-344 880,-789 1157,-1387 74,-272 41,-514 -63,-707 -83,-156 -213,-285 -369,-375 -160,-93 -344,-146 -532,-146 -262,-1 -535,97 -768,323zm1040 2940c-361,261 -754,472 -1162,649 214,37 451,65 698,79 491,29 1010,0 1432,-133 351,-111 626,-294 728,-579 2,-5 3,-10 5,-15 23,-68 37,-145 42,-230 7,-114 -30,-229 -91,-334 -77,-132 -190,-246 -311,-330 -107,-74 -210,-120 -285,-124 -1,0 0,0 0,-1l0 -4c-15,8 -31,15 -46,21 -287,399 -629,726 -1009,1001zm1068 -1029c-4,3 -9,5 -13,7l0 4c3,-4 25,-18 13,-11zm-9292 5796c3,-24 8,-47 15,-71 2,-6 -4,4 -7,-5 -25,-86 -102,-190 -213,-291 -123,-113 -278,-208 -442,-260 -136,-43 -276,-55 -401,-19 -94,27 -176,63 -247,106 -301,183 -439,536 -473,955 -40,489 56,1054 207,1575 80,276 174,536 272,766 62,-454 183,-918 372,-1364 213,-502 514,-980 916,-1392zm936 236c-518,395 -881,913 -1118,1469 -224,528 -335,1088 -357,1612 545,-83 1076,-212 1568,-424 599,-258 1143,-642 1586,-1222 149,-282 171,-558 104,-799 -54,-195 -166,-370 -315,-508 -152,-141 -343,-243 -552,-291 -285,-65 -608,-25 -917,163zm410 3392c-483,208 -992,344 -1512,437 249,108 538,213 847,301 522,149 1088,243 1574,200 419,-36 771,-175 953,-478 42,-70 77,-152 104,-247 36,-127 24,-266 -19,-399 -53,-164 -149,-319 -263,-442 -101,-109 -206,-186 -293,-210 -11,-3 5,-12 -4,-9 -25,8 -50,13 -75,16 -400,359 -844,628 -1314,831zm-9271 4049c3,-34 10,-69 22,-103 3,-9 0,-31 -7,-61 -32,-125 -132,-274 -276,-416 -156,-153 -355,-286 -571,-362 -182,-64 -372,-87 -551,-42 -124,31 -235,75 -332,129 -414,232 -614,688 -678,1232 -72,614 24,1330 191,1993 122,483 280,933 438,1293 81,-657 262,-1341 564,-1987 286,-611 680,-1188 1199,-1677zm1006 204c-675,477 -1159,1117 -1484,1810 -324,692 -490,1437 -529,2128 727,-77 1439,-216 2099,-473 765,-298 1469,-757 2055,-1470 219,-371 263,-743 185,-1070 -62,-260 -202,-496 -394,-687 -194,-193 -440,-337 -713,-409 -375,-99 -803,-62 -1219,171zm374 4209c-697,271 -1432,423 -2176,509 359,192 822,394 1326,557 650,211 1359,354 1975,323 549,-28 1018,-197 1276,-594 61,-93 112,-201 151,-323 57,-174 47,-366 -6,-552 -62,-220 -182,-428 -324,-594 -132,-153 -273,-263 -395,-303 -30,-10 -51,-14 -61,-11 -35,10 -71,15 -105,15 -509,430 -1069,744 -1661,974zm12372 3865c-307,2 -617,7 -930,15 817,474 1451,1220 1929,2277 728,1609 2238,4059 4105,5567 1238,1001 2629,1579 4028,1173l0 0 6 -2 0 0c84,-25 148,-73 182,-139 40,-78 47,-189 7,-328l0 0 -3 -9 0 0c-635,-2114 -2046,-4266 -3873,-5894 -1588,-1414 -3485,-2426 -5449,-2661zm6399 61l4 14c978,444 1921,1047 2808,1615l22 14c1271,813 2292,1305 3381,1554 1092,250 2272,260 3859,111 85,-8 154,-34 200,-72 19,-15 32,-31 39,-47 6,-13 8,-28 7,-44 -3,-36 -25,-81 -69,-135 -989,-1224 -2473,-2167 -4231,-2713 -1719,-533 -3694,-685 -5722,-348 -30,5 -46,8 -131,22 -52,9 -109,18 -169,28zm-6344 -2463c-297,516 -579,1006 -1002,1422 610,-102 1259,-253 1880,-468 728,-253 1414,-594 1943,-1049 208,-179 624,-700 976,-1274 251,-411 461,-834 518,-1150 3,-15 -5,-47 -21,-88 -22,-56 -56,-111 -99,-153 -103,-101 -490,-31 -946,107 -803,242 -1698,712 -1969,951 -610,540 -954,1139 -1279,1702z" style="fill: #111111; fill-rule: nonzero;"/></g></g><g id="SvgjsG1639" featureKey="EI8VXn-0" transform="matrix(6.854590334342787,0,0,6.854590334342787,-2.0559878191687933,166.10344454090222)" fill="#000"><path d="M12.264 19.2754 c0.12939 0.021796 0.2608 0.02541 0.4164 0.039218 c0.15961 0.12359 0.2224 0.3352 0.15621 0.5258 c-0.073808 0.13721 -0.21942 0.22022 -0.37502 0.21362 c-0.2802 0.0046094 -0.56058 0.003418 -0.84138 0.0030274 c-0.2056 0 -0.411 -0.0053906 -0.6166 -0.0047852 c-0.6762 0.0032032 -1.34 -0.18141 -1.9176 -0.533 c-0.2058 -0.13 -0.3864 -0.2962 -0.53282 -0.49058 c-0.2682 -0.3354 -0.5302 -0.6752 -0.7692 -1.0332 c-0.2902 -0.435 -0.60298 -0.8546 -0.90058 -1.2842 c-0.19141 -0.2762 -0.3746 -0.5578 -0.5588 -0.83898 c-0.1434 -0.2186 -0.2808 -0.4416 -0.4232 -0.6604 c-0.2542 -0.3916 -0.5096 -0.7826 -0.766 -1.1728 c-0.071406 -0.10859 -0.1498 -0.2126 -0.2238 -0.3172 c-0.219 -0.059804 -0.4464 -0.082598 -0.673 -0.067794 c-0.1852 -0.028594 -0.3744 -0.01459 -0.5534 0.040606 c-0.015996 0.0064062 -0.027794 0.023204 -0.050196 0.042012 c-0.019199 0.048398 -0.032598 0.098788 -0.039804 0.15039 c-0.0082032 0.2052 -0.010195 0.41058 -0.011992 0.6162 c-0.010801 1.308 -0.020996 2.6158 -0.0308 3.9232 c-0.013203 0.2294 0.00080078 0.4596 0.041992 0.68558 c0.081192 0.14539 0.2286 0.24138 0.3942 0.25678 c0.11039 0.010391 0.22158 0.010781 0.3138 0.014785 c0.13961 0.1118 0.1866 0.3034 0.1148 0.467 c-0.041796 0.06539 -0.1118 0.1076 -0.1892 0.114 c-0.2228 0.020996 -0.4458 0.044004 -0.6686 0.063204 c-0.074394 0.0067968 -0.149 0.0067968 -0.2234 0 c-0.7254 -0.068204 -1.454 -0.092402 -2.1824 -0.072402 c-0.2242 0.0032032 -0.4484 0.0043946 -0.673 -0.0016016 c-0.057794 -0.012598 -0.11318 -0.034004 -0.16459 -0.063204 c-0.0093946 -0.072402 -0.013789 -0.14561 -0.013184 -0.21862 c0.0075976 -0.11561 0.082988 -0.21542 0.19199 -0.25442 c0.1198 -0.04961 0.2472 -0.081406 0.368 -0.12961 c0.10641 -0.042794 0.18301 -0.1376 0.20282 -0.2506 c0.010996 -0.055 0.017988 -0.11061 0.020996 -0.1666 c0.0258 -0.3348 0.056602 -0.6696 0.073398 -1.005 c0.010391 -0.16779 0.0043946 -0.3362 -0.017813 -0.5028 c-0.030606 -0.241 -0.043808 -0.48378 -0.039414 -0.72658 c0 -1.7376 0.00060546 -3.4752 0.0017969 -5.213 c0 -0.2984 0.026796 -0.5968 0.042188 -0.895 c0.0046094 -0.093204 0.017207 -0.18641 0.018008 -0.2796 c0.007793 -0.8218 0.011602 -1.644 0.020996 -2.4658 c0.0032032 -0.262 -0.037988 -0.5226 -0.12219 -0.7706 c-0.026406 -0.053808 -0.059004 -0.1042 -0.097208 -0.15039 l-0.5794 -0.1682 c-0.126 -0.15619 -0.114 -0.38218 0.027988 -0.52418 c0.384 -0.074004 0.7744 -0.1092 1.1654 -0.105 c1.3798 0.1126 2.7632 0.047794 4.1446 0.088184 c0.56 0.018398 1.1158 0.10439 1.6552 0.2562 c0.4714 0.1234 0.9154 0.334 1.309 0.6208 c0.2242 0.1682 0.448 0.3366 0.66762 0.5098 c0.5274 0.4276 0.8906 1.0248 1.0276 1.6898 c0.047402 0.19961 0.085196 0.4022 0.11379 0.6054 c0.036192 0.2406 0.034394 0.4856 -0.0052148 0.7256 c-0.025196 0.1474 -0.0408 0.296 -0.070996 0.4418 c-0.0208 0.1284 -0.055996 0.2542 -0.1052 0.3748 c-0.18381 0.3896 -0.444 0.73842 -0.7652 1.0256 c-0.1376 0.12619 -0.2918 0.23298 -0.44 0.34658 c-0.3068 0.2478 -0.6726 0.4118 -1.0618 0.4762 c-0.1542 0.011797 -0.3012 0.070996 -0.42058 0.16939 c0.0024024 0.05039 0.014004 0.099786 0.034004 0.14598 c0.7518 1.115 1.5054 2.2288 2.261 3.3414 c0.15699 0.2314 0.3154 0.4642 0.4662 0.6994 c0.302 0.4498 0.62878 0.88282 0.9784 1.2966 c0.1134 0.1502 0.2766 0.2552 0.4602 0.2968 c0.14539 0.031192 0.2886 0.075196 0.435 0.10039 z M3.9448 6.864000000000001 c-0.085196 0.00039062 -0.16557 0.04 -0.21796 0.1074 c-0.014609 0.081992 -0.024414 0.165 -0.029414 0.2482 c-0.007207 0.4672 -0.011816 0.93442 -0.013613 1.4014 c-0.002793 0.7662 0 1.5324 -0.0064062 2.2986 c0.00060546 0.2616 -0.018789 0.5228 -0.057988 0.78138 c-0.045996 0.3148 -0.053788 0.6338 -0.023398 0.9504 c0.014395 0.053398 0.037794 0.104 0.068984 0.14961 c0.061192 0.0038086 0.11559 0.010605 0.16979 0.0098046 c0.2792 -0.021992 0.5594 -0.025196 0.839 -0.0098046 c0.2788 0.025996 0.5596 0.01959 0.83682 -0.019004 c0.902 -0.058594 1.6858 -0.64058 2.003 -1.487 c0.11439 -0.2962 0.19119 -0.60558 0.2286 -0.92098 c0.14881 -0.7816 -0.040996 -1.5896 -0.522 -2.2234 c-0.022598 -0.02961 -0.043788 -0.060606 -0.065196 -0.090996 c-0.318 -0.4436 -0.76262 -0.7808 -1.2756 -0.9674 c-0.4452 -0.14039 -0.9076 -0.2184 -1.3742 -0.2314 c-0.1868 -0.0093946 -0.37378 -0.0083984 -0.5604 0.0032032 z M21.0852 7.731999999999999 c0.0024024 -0.2854 -0.036114 -0.5697 -0.11451 -0.84432 c-0.12359 -0.1376 -0.3052 -0.2086 -0.4894 -0.1908 c-0.181 0.0046094 -0.2634 -0.098398 -0.2666 -0.2834 c-0.00080078 -0.037206 0.0014063 -0.074414 0.006211 -0.11141 c0.014395 -0.1148 0.1024 -0.2066 0.2164 -0.2258 c0.036796 -0.0053906 0.073788 -0.011797 0.111 -0.013789 c0.3366 -0.018008 0.6702 -0.036016 1.0046 -0.076816 c0.2418 -0.023594 0.4854 -0.025586 0.7276 -0.0061914 c0.3898 0.020996 0.7782 0.061386 1.1258 0.08998 c0.082402 0.038204 0.14 0.11541 0.1534 0.20522 c0.015 0.092208 0.021406 0.18561 0.019199 0.279 c-0.015391 0.4668 -0.005996 0.9342 0.027812 1.4 c0.0098046 0.186 0.0048046 0.3732 0.0017969 0.5598 c-0.011992 0.7656 -0.026386 1.5312 -0.038788 2.297 c-0.0074024 0.4482 -0.018809 0.8964 -0.017402 1.3446 c0.0019922 0.6536 0.017598 1.3074 0.020996 1.961 c0.0025976 0.7096 0.007207 1.4196 -0.0089844 2.129 c-0.0075976 0.3348 -0.071796 0.6672 -0.059804 1.005 c-0.0017969 0.2426 0.012207 0.4852 0.042012 0.726 c0.024394 0.14619 0.013203 0.29798 0.024804 0.4468 c0.01 0.129 0.02961 0.2572 0.043808 0.37522 l0.1608 0.12881 l0.53 -0.1052 c0.0992 0.1616 0.0992 0.1616 0.033594 0.4724 c-0.059804 0.097208 -0.1542 0.1682 -0.2642 0.19801 c-0.4046 0.1432 -0.81602 0.2658 -1.2328 0.367 c-0.4732 0.11039 -0.9606 0.14658 -1.4448 0.10719 c-0.0558 -0.0046094 -0.11041 -0.018418 -0.16141 -0.041016 c-0.033808 -0.020606 -0.064804 -0.045606 -0.091602 -0.07461 c-0.065 -0.1926 -0.092402 -0.396 -0.0808 -0.599 c-0.012207 -0.204 0.005 -0.4098 0 -0.61442 c-0.0048046 -0.2012 -0.020996 -0.40238 -0.032598 -0.60478 c-0.04461 0.010801 -0.09 0.0080078 -0.10801 0.028808 c-0.3644 0.4262 -0.7754 0.81 -1.2256 1.1444 c-0.3848 0.2984 -0.8252 0.517 -1.2956 0.64318 c-0.073594 0.011797 -0.1466 0.028594 -0.218 0.050196 c-0.7186 0.2918 -1.4722 0.2594 -2.2118 0.17779 c-0.8272 -0.097792 -1.5816 -0.52 -2.0976 -1.1738 c-0.3146 -0.3716 -0.55622 -0.7994 -0.71202 -1.2608 c-0.075606 -0.2112 -0.12221 -0.4318 -0.1384 -0.6558 c-0.01 -0.18561 -0.048008 -0.3698 -0.064004 -0.5556 c-0.019395 -0.223 -0.034394 -0.4466 -0.04039 -0.6704 c-0.010801 -0.392 0.005 -0.7858 -0.023398 -1.1762 c-0.042402 -0.6138 -0.048594 -1.2292 -0.018398 -1.8436 c0.076796 -1.6988 0.017188 -3.3992 0.026582 -5.099 c0.0069922 -0.2432 -0.038808 -0.4852 -0.13381 -0.7094 c-0.034394 -0.088594 -0.10479 -0.1584 -0.19338 -0.1926 c-0.15619 -0.05461 -0.3154 -0.099218 -0.475 -0.14723 c-0.097598 -0.12641 -0.1098 -0.299 -0.030996 -0.43782 c0.059804 -0.0658 0.14561 -0.1016 0.2342 -0.097598 c0.8022 -0.018008 1.6018 -0.11561 2.4056 -0.079004 c0.1302 0.002207 0.2602 0.012813 0.389 0.031406 c0.1568 0.022402 0.26958 0.1618 0.25898 0.31958 c-0.0016016 0.186 -0.028808 0.37138 -0.040606 0.55738 c-0.0758 1.1946 -0.050996 2.3898 -0.010605 3.5848 c0.012598 0.3726 0.023398 0.7448 0.060606 1.1174 c0.027794 0.3352 0.021992 0.672 -0.016816 1.006 c-0.036992 0.3154 -0.044786 0.6334 -0.023594 0.9502 c0.051406 0.6154 0.048614 1.2314 0.053808 1.8474 c0.0025976 0.2988 0.0011914 0.59782 0.002793 0.89662 c0.0098046 0.5076 0.16641 1.0014 0.4508 1.4218 c0.121 0.18939 0.2834 0.34878 0.4748 0.46658 c0.5422 0.348 1.2096 0.4414 1.8266 0.25602 c0.12619 -0.0342 0.2502 -0.076602 0.3774 -0.1052 c0.658 -0.159 1.253 -0.5118 1.7086 -1.0124 c0.1682 -0.17539 0.3222 -0.3628 0.48022 -0.5468 c0.264 -0.2964 0.403 -0.6834 0.38782 -1.08 c-0.010391 -0.3732 -0.0057812 -0.74702 -0.0057812 -1.1206 c0 -1.046 0.004004 -2.092 0.0024024 -3.138 c-0.0016016 -0.9152 -0.0096094 -1.8298 -0.012207 -2.7456 c0 -0.3176 0.0014063 -0.6352 0.0096094 -0.9526 z M37.177 6.417999999999999 c0.0074024 0.1092 -0.031308 0.21638 -0.1067 0.29558 c-0.1716 0.051406 -0.3334 0.094414 -0.4908 0.14902 c-0.14641 0.05039 -0.24942 0.18238 -0.26282 0.33658 c-0.020996 0.1666 -0.032402 0.3346 -0.033808 0.50262 c0.0048046 0.3174 -0.011992 0.635 -0.05039 0.9502 c-0.029004 0.185 -0.030196 0.3732 -0.0035938 0.5586 c0.054394 0.5204 0.075996 1.0436 0.064804 1.5668 c0.016406 0.8412 0.0067968 1.6824 0.020996 2.5224 c0.0080078 0.5048 0.0064062 1.008 0.054414 1.5114 c0.02 0.2798 0.016406 0.5606 -0.010801 0.8396 c-0.035196 0.4092 -0.029804 0.8208 0.016387 1.2288 c0.046406 0.5402 0.0558 1.0828 0.028398 1.624 c-0.002207 0.1684 -0.0056054 0.3366 0.0021876 0.5038 c0.0032032 0.105 0.054394 0.2028 0.139 0.2654 l0.532 0.1542 c0.10359 0.10119 0.13199 0.257 0.070996 0.3884 c-0.022794 0.05 -0.060996 0.091602 -0.1092 0.1182 c-0.049804 0.0258 -0.1048 0.04 -0.1608 0.041992 c-0.149 0.010605 -0.29862 0.018809 -0.44782 0.018418 c-0.6914 -0.0019922 -1.3828 -0.0089844 -2.0744 -0.010586 c-0.28 0 -0.5604 0.01 -0.8412 0.01 c-0.1118 0.0011914 -0.2236 -0.007207 -0.3342 -0.025 c-0.094804 -0.017207 -0.1748 -0.080214 -0.2142 -0.16822 c-0.029394 -0.1492 0.01041 -0.3038 0.10781 -0.4206 c0.16699 -0.02539 0.33318 -0.044394 0.49638 -0.078204 c0.11381 -0.021796 0.20442 -0.1082 0.2314 -0.221 c0.04461 -0.14279 0.072812 -0.29 0.084004 -0.439 c0.019004 -0.3544 0.015 -0.7096 -0.011797 -1.0636 c-0.043008 -0.4834 -0.059804 -0.9688 -0.05041 -1.4542 c0.0043946 -0.9156 0.0066016 -1.831 0.0066016 -2.7466 c-0.0043946 -0.07 -0.013594 -0.13939 -0.027598 -0.20798 c-0.041992 -0.031192 -0.06959 -0.065 -0.10238 -0.071796 c-0.072206 -0.019609 -0.14721 -0.026816 -0.22182 -0.021016 c-0.466 0.072206 -0.9304 -0.0074024 -1.3954 -0.01041 c-1.1022 -0.007793 -2.2046 -0.026602 -3.307 -0.038594 c-0.135 -0.022598 -0.2738 0.0024024 -0.3922 0.0708 c-0.0258 0.041992 -0.043594 0.088184 -0.052794 0.13658 c-0.0085938 0.2612 -0.01 0.5228 -0.010605 0.7844 c-0.002207 0.9342 -0.0060156 1.8686 -0.003418 2.8028 c0.0017969 0.6538 0.008789 1.3076 0.021192 1.9616 c0.0066016 0.338 0.084004 0.425 0.4088 0.5008 c0.090196 0.020996 0.1826 0.032598 0.242 0.042988 c0.076406 0.042206 0.1268 0.11941 0.1352 0.2062 c0.013809 0.098008 0.010215 0.19762 -0.010586 0.29442 c-0.040606 0.079394 -0.11781 0.134 -0.2062 0.1458 c-0.111 0.013809 -0.2228 0.0208 -0.33478 0.020996 c-0.542 0.0019922 -1.084 0 -1.6258 0.0011914 c-0.43 0.0011914 -0.8596 0.0083984 -1.2894 0.0082032 c-0.1684 0 -0.3366 -0.0088086 -0.503 -0.021016 c-0.1158 -0.017402 -0.199 -0.1208 -0.19141 -0.2376 c-0.011406 -0.094804 0.017188 -0.19 0.07918 -0.2626 c0.1926 -0.14221 0.4752 -0.10701 0.6486 -0.32082 c0.10939 -0.2136 0.161 -0.45218 0.14959 -0.692 c-0.0032032 -0.5232 -0.0032032 -1.0464 0 -1.5698 c0.002793 -0.6912 0.011992 -1.3828 0.011797 -2.074 s-0.009004 -1.3828 -0.012402 -2.0742 c-0.0080078 -1.6442 -0.034414 -3.2886 0.003379 -4.9328 c0.0033984 -0.14961 0.002793 -0.29922 -0.0018164 -0.44842 c0.0017969 -0.1832 -0.05541 -0.36202 -0.16281 -0.51022 c-0.17779 -0.1908 -0.427 -0.1516 -0.607 -0.2222 c-0.087792 -0.088398 -0.11639 -0.2194 -0.073594 -0.33638 c0.02 -0.074004 0.076796 -0.13221 0.1502 -0.1542 c0.052598 -0.018398 0.10721 -0.03 0.16281 -0.03461 c0.2052 -0.01 0.4116 -0.027794 0.61622 -0.017793 c0.673 0.032794 1.346 -0.0036132 2.0176 -0.013613 c0.3112 -0.0098046 0.6226 0.00019531 0.9326 0.029804 c0.1598 0.083008 0.24202 0.2648 0.19842 0.4396 c-0.13439 0.2392 -0.4016 0.16699 -0.58 0.2536 c-0.082792 0.05539 -0.14219 0.13979 -0.16658 0.23658 c-0.063008 0.1758 -0.0958 0.3608 -0.096992 0.5474 c-0.0242 0.7842 -0.0009961 1.569 0.069394 2.3504 c0.025996 0.279 0.034804 0.5594 0.026602 0.8394 c0.0053906 0.5232 0.0053906 1.0462 0.01 1.5696 c0.0046094 0.057598 0.013613 0.115 0.026622 0.17141 c0.0442 0.029804 0.093398 0.051602 0.1452 0.0642 c0.1682 0.0085938 0.3364 0.0021876 0.5046 0.0047852 c0.5232 0.007207 1.05 -0.021192 1.5684 0.032012 c0.9884 0.101 1.9792 0.023204 2.9678 0.066796 c0.052794 -0.0016016 0.10539 -0.007793 0.15719 -0.018594 c0.066406 -0.042402 0.10621 -0.11621 0.10502 -0.19502 c0.002207 -0.0558 0.007207 -0.11199 0.0048046 -0.16818 c-0.042206 -0.953 0.018184 -1.9056 0.018379 -2.8584 c0.0030078 -0.18641 0.015801 -0.3726 0.037794 -0.5576 c0.04539 -0.5212 0.054786 -1.045 0.028184 -1.5676 c-0.013203 -0.14881 -0.045606 -0.29542 -0.096212 -0.4358 c-0.033808 -0.111 -0.1316 -0.1902 -0.2472 -0.2 c-0.14721 -0.019395 -0.29442 -0.026386 -0.42782 -0.037988 c-0.1124 -0.12619 -0.12121 -0.3138 -0.021016 -0.44998 c0.076406 -0.037402 0.1574 -0.065 0.2408 -0.081992 c0.2416 -0.020996 0.4838 -0.035196 0.7274 -0.036796 c0.7848 -0.0043946 1.5696 -0.0024024 2.3556 -0.0014063 c0.1858 0 0.372 0.005996 0.5158 0.0085938 c0.144 0.044004 0.23862 0.18141 0.22822 0.3314 z M45.1548 11.4336 c0.052794 -0.1642 0.088516 -0.32738 0.13531 -0.5004 c0.11359 -0.097208 0.27 -0.1276 0.4118 -0.080196 c0.11359 0.022402 0.201 0.11279 0.2198 0.227 c0.015391 0.1108 0.023184 0.2224 0.023184 0.3344 c0.004004 0.392 0.0067968 0.7842 0.0048046 1.1762 c-0.0030078 0.617 -0.0086132 1.2332 -0.017012 1.849 c-0.004004 0.0742 -0.013809 0.14801 -0.029414 0.2206 c-0.023204 0.093204 -0.1052 0.16 -0.201 0.16359 c-0.13961 0.018809 -0.2798 -0.0292 -0.37862 -0.1292 c-0.0308 -0.12279 -0.057598 -0.26958 -0.1052 -0.4096 c-0.05 -0.14061 -0.1092 -0.278 -0.17699 -0.4108 c-0.058008 -0.1168 -0.12301 -0.2298 -0.19461 -0.33862 c-0.13279 -0.207 -0.3444 -0.3508 -0.5858 -0.398 c-0.1626 -0.041796 -0.3284 -0.07 -0.4956 -0.0842 c-0.7092 -0.0358 -1.419 -0.03461 -2.1288 -0.02461 c-0.096406 -0.011406 -0.19221 0.025 -0.25702 0.097208 c-0.040606 0.1016 -0.0542 0.2122 -0.0392 0.3206 c-0.0009961 0.9152 -0.0009961 1.8304 0 2.7454 c0 0.8404 0.00080078 1.6808 0.0024024 2.5214 c0 0.13039 0.011602 0.2612 0.022598 0.3912 c0.0051954 0.0558 0.016992 0.1108 0.03459 0.164 c0.025996 0.090996 0.084804 0.1692 0.1652 0.2192 c0.1566 0.1034 0.3382 0.1624 0.5256 0.1708 c0.11221 0 0.2242 0.0033984 0.3366 0.002207 c0.8592 -0.0096094 1.7182 -0.021016 2.5774 -0.028808 c0.2984 -0.014004 0.595 -0.054394 0.8864 -0.12059 c0.2402 -0.049004 0.4594 -0.1718 0.62638 -0.3512 c0.16061 -0.1568 0.2966 -0.3368 0.4036 -0.5342 c0.0842 -0.1658 0.1708 -0.3314 0.258 -0.5004 c0.16721 -0.10039 0.3796 -0.085586 0.53122 0.037422 c0.004004 0.055196 0.004004 0.1108 0 0.166 c-0.066602 0.4428 -0.136 0.885 -0.204 1.3274 c-0.0061914 0.12461 -0.068984 0.2396 -0.17059 0.3122 c-0.098008 0.010605 -0.2264 0.03 -0.3554 0.036602 c-0.3538 0.018594 -0.70702 0.0292 -1.0608 0.066796 c-0.3906 0.039804 -0.7842 0.036796 -1.1742 -0.009004 c-0.2034 -0.022794 -0.409 -0.033788 -0.6138 -0.036992 c-1.1018 -0.017598 -2.2036 -0.035 -3.3056 -0.04461 c-0.859 -0.007207 -1.7184 -0.002207 -2.5776 -0.0052148 c-0.149 0 -0.29782 -0.011406 -0.44662 -0.021016 c-0.0742 -0.016406 -0.1318 -0.075 -0.14719 -0.14939 c-0.028204 -0.1266 -0.015996 -0.259 0.035196 -0.3784 c0.050606 -0.057598 0.12201 -0.092208 0.19842 -0.096406 c0.14881 -0.012207 0.2998 -0.013203 0.446 -0.03961 c0.17 -0.027402 0.3144 -0.139 0.384 -0.2964 c0.084004 -0.1676 0.13141 -0.3512 0.1392 -0.5384 c0.013008 -0.7844 0.031016 -1.5686 0.039218 -2.3528 c0.0082032 -0.803 -0.016191 -1.6072 0.017813 -2.4088 c0.023808 -0.56 0.042012 -1.1192 0.038008 -1.679 c-0.0009961 -0.2046 -0.02959 -0.4088 -0.039394 -0.61342 c-0.02 -0.4102 -0.048594 -0.8202 -0.050586 -1.2308 c-0.0035938 -0.7842 0.01041 -1.5686 0.013809 -2.3532 c0.0038086 -0.18641 -0.0031836 -0.373 -0.021192 -0.55862 c-0.015391 -0.2532 -0.20638 -0.4606 -0.45738 -0.4968 c-0.109 -0.025 -0.2194 -0.044394 -0.33 -0.063204 c-0.11039 -0.018594 -0.2188 -0.035196 -0.31978 -0.051192 c-0.104 -0.1432 -0.12301 -0.33122 -0.049804 -0.4922 c0.043398 -0.028808 0.090996 -0.0508 0.141 -0.065196 c0.12961 -0.016992 0.26 -0.025996 0.3906 -0.026602 c0.5418 -0.0016016 1.0836 0.0025976 1.6252 0.0024024 c0.9338 0 1.8676 -0.00080078 2.8014 -0.0025976 c0.037402 0 0.074804 -0.0014063 0.11221 0 c1.2698 0.0056054 2.5398 0.011602 3.8096 0.018008 c0.074394 -0.0014063 0.14879 0.0071876 0.22078 0.02539 c0.053398 0.024004 0.10301 0.055606 0.14721 0.093614 c0.019805 0.087792 0.045196 0.17719 0.059804 0.26838 c0.079004 0.4972 0.15621 0.9948 0.2314 1.4932 c0.00039062 0.036992 -0.004004 0.073984 -0.013203 0.10998 c-0.017793 0.073594 -0.072402 0.13279 -0.14439 0.15639 c-0.13359 0.043204 -0.2794 0.026406 -0.3996 -0.046386 c-0.10881 -0.2314 -0.2162 -0.49 -0.348 -0.7346 c-0.18699 -0.371 -0.50138 -0.66218 -0.8854 -0.8202 c-0.049804 -0.0258 -0.1026 -0.044804 -0.1574 -0.057012 c-0.3112 -0.061406 -0.626 -0.10441 -0.9424 -0.12861 c-0.8412 0 -1.681 0 -2.5214 0.0019922 c-0.12859 -0.012793 -0.2584 0.0056054 -0.3784 0.054004 c-0.062598 0.045996 -0.096192 0.12139 -0.088594 0.19859 c-0.0067968 0.7282 -0.016602 1.4566 -0.017402 2.185 c0 0.99 0.0051954 1.9796 0.0071876 2.9696 c-0.010391 0.2228 0.0016016 0.446 0.0358 0.66638 c0.049394 0.031192 0.10359 0.053594 0.16059 0.065996 c0.673 -0.002207 1.3446 -0.0030078 2.0166 -0.019805 c0.2422 -0.013809 0.4834 -0.041816 0.7222 -0.084218 c0.285 -0.032598 0.5322 -0.2118 0.65202 -0.4724 c0.085196 -0.18641 0.15859 -0.3782 0.2192 -0.5742 z"/></g><g id="SvgjsG1640" featureKey="EI8VXn-1" transform="matrix(3.582372517831382,0,0,3.582372517831382,0.7880762550795283,293.18186008476584)" fill="#000"><path d="M-0.21966 6.539 c-0.0053906 -0.17061 0.055996 -0.33674 0.17139 -0.46274 c0.11721 -0.011602 0.22702 -0.032402 0.3364 -0.032402 c0.7472 0 1.4946 0.0074024 2.242 0.0080078 c0.4482 0 0.8966 -0.0080078 1.3458 -0.0096094 c0.13539 -0.016602 0.27238 0.0053906 0.39578 0.063184 c0.028594 0.041406 0.052402 0.0858 0.071212 0.1324 c0.034004 0.12721 0.033614 0.26102 -0.0011914 0.388 c-0.018398 0.09461 -0.08959 0.17021 -0.18299 0.19402 c-0.14301 0.036192 -0.2908 0.054394 -0.4458 0.082188 c-0.04 0.063398 -0.072598 0.13119 -0.096602 0.20218 c-0.03 0.1474 -0.019004 0.3002 0.031386 0.4418 c0.085606 0.2468 0.16381 0.4966 0.26102 0.739 c0.3136 0.7794 0.6086 1.5662 0.885 2.3598 c0.272 0.7756 0.5628 1.5436 0.8726 2.3046 c0.2104 0.5192 0.39378 1.0488 0.602 1.5686 c0.2774 0.6928 0.5664 1.381 0.8542 2.0696 c0.010801 0.02539 0.060996 0.034394 0.092792 0.051192 c0.5798 -1.3166 1.8908 -4.9528 2.1316 -5.9198 c-0.038594 -0.1002 -0.0808 -0.22298 -0.1324 -0.34158 c-0.2314 -0.531 -0.4484 -1.0672 -0.643 -1.613 c-0.1002 -0.2812 -0.2102 -0.5594 -0.3224 -0.8362 c-0.091406 -0.225 -0.2062 -0.44 -0.3424 -0.6414 c-0.1524 -0.2386 -0.3868 -0.4132 -0.659 -0.4908 c-0.089394 -0.025196 -0.179 -0.04959 -0.2482 -0.068984 c-0.10561 -0.063808 -0.15441 -0.19121 -0.11861 -0.30922 c0.010391 -0.087598 0.037988 -0.17221 0.080996 -0.2492 c0.0892 -0.078808 0.20458 -0.1216 0.3236 -0.12 c0.6152 -0.0308 1.2288 -0.09 1.8452 -0.08961 c0.598 0 1.1958 0.0019922 1.7938 -0.0024024 c0.2618 -0.007793 0.5232 0.027012 0.774 0.10301 c0.034004 0.014609 0.066602 0.032206 0.097208 0.052812 c0.1082 0.2314 0.1082 0.2314 -0.03539 0.5874 c-0.2812 0.12779 -0.6168 0.0842 -0.8854 0.2072 c-0.091192 0.080996 -0.1426 0.19779 -0.14061 0.31978 c-0.0098046 0.18721 0.022988 0.3742 0.096192 0.5468 c0.079394 0.18939 0.15379 0.3816 0.2426 0.5666 c0.3564 0.7416 0.65202 1.5084 0.94842 2.2746 c0.3502 0.9056 0.694 1.8136 1.0386 2.7212 c0.2856 0.7502 0.56782 1.5016 0.8564 2.2502 c0.051602 0.17859 0.1326 0.3476 0.2394 0.4998 c0.1218 -0.071796 0.11959 -0.19219 0.14719 -0.28998 c0.156 -0.5766 0.2978 -1.1568 0.4534 -1.7334 c0.258 -0.955 0.5248 -1.9076 0.784 -2.8622 c0.19561 -0.721 0.4232 -1.4322 0.666 -2.1386 c0.1384 -0.4262 0.2516 -0.8604 0.3392 -1.2998 c0.072794 -0.2502 0.074394 -0.5158 0.0047852 -0.7668 c-0.2 -0.2974 -0.5322 -0.2458 -0.7598 -0.3274 c-0.235 -0.011992 -0.4022 0.13801 -0.59622 0.059004 c-0.07961 -0.0808 -0.1148 -0.19541 -0.094414 -0.30702 c0 -0.10939 -0.018008 -0.227 0.088984 -0.3088 c0.1176 -0.056992 0.2488 -0.07959 0.3786 -0.064786 c0.4484 -0.0061914 0.8968 -0.008789 1.346 -0.0047852 c0.5418 0.005 1.0832 0.017598 1.625 0.028204 c0.093204 0.0016016 0.1866 0.0066016 0.2792 0.015801 c0.11359 0.019199 0.20398 0.10561 0.22798 0.2182 c0.015195 0.12779 0.017402 0.2574 0.022794 0.3496 c-0.031992 0.1048 -0.12639 0.1784 -0.236 0.18359 c-0.111 0.010391 -0.2236 0.0079882 -0.33638 0.010586 c-0.171 0.0061914 -0.33 0.08959 -0.4322 0.22658 c-0.11939 0.14461 -0.21 0.31042 -0.2672 0.489 c-0.13961 0.4254 -0.2832 0.84978 -0.4206 1.2766 c-0.1876 0.5864 -0.3756 1.1732 -0.55362 1.763 c-0.334 1.1078 -0.6604 2.218 -0.9916 3.327 c-0.095996 0.322 -0.18779 0.6454 -0.29718 0.96298 c-0.1518 0.4414 -0.2812 0.89022 -0.38738 1.3448 c-0.13359 0.5824 -0.30478 1.1558 -0.51258 1.716 c-0.2336 0.6106 -0.4062 1.2428 -0.5154 1.8874 c-0.004004 0.055606 -0.019805 0.1098 -0.046406 0.15881 c-0.036602 0.063808 -0.091212 0.11561 -0.15701 0.1484 c-0.2086 0.0908 -0.44978 0.063808 -0.63298 -0.070996 c-0.1116 -0.17461 -0.19939 -0.3632 -0.26058 -0.56122 c-0.1108 -0.2774 -0.2206 -0.5556 -0.318 -0.8376 c-0.171 -0.4952 -0.39 -0.97 -0.6008 -1.4484 c-0.6406 -1.4522 -1.2674 -2.9104 -1.8438 -4.3898 c-0.067794 -0.17359 -0.14719 -0.3428 -0.22838 -0.5112 c-0.033594 -0.052794 -0.072188 -0.10219 -0.11578 -0.14719 c-0.041992 0.063808 -0.080196 0.13021 -0.11359 0.19881 c-0.3228 0.7962 -0.6476 1.591 -0.962 2.3902 c-0.2524 0.6428 -0.4978 1.2884 -0.7362 1.9372 c-0.3154 0.8584 -0.62238 1.7204 -0.93238 2.581 c-0.094804 0.269 -0.2056 0.5322 -0.3318 0.7882 c-0.070196 0.081992 -0.1758 0.1252 -0.2834 0.11559 c-0.1566 -0.0017969 -0.3092 -0.050996 -0.4374 -0.141 c-0.227 -0.2664 -0.4026 -0.5724 -0.5178 -0.9028 c-0.14539 -0.364 -0.26818 -0.73702 -0.4178 -1.0992 c-0.2214 -0.5346 -0.45122 -1.0658 -0.6896 -1.5936 c-0.4718 -1.0376 -0.8778 -2.1018 -1.2914 -3.163 c-0.461 -1.1828 -0.9208 -2.3662 -1.3796 -3.5502 c-0.2036 -0.5218 -0.4128 -1.0414 -0.6212 -1.5614 c-0.06961 -0.1732 -0.14342 -0.345 -0.21862 -0.5158 c-0.081406 -0.1892 -0.19521 -0.3626 -0.3364 -0.5126 c-0.13221 -0.1598 -0.3156 -0.2692 -0.5192 -0.30958 c-0.073008 -0.014609 -0.1432 -0.0408 -0.208 -0.077794 c-0.08461 -0.043808 -0.13801 -0.13141 -0.13801 -0.2268 z M26.5348 11.4336 c0.052794 -0.1642 0.088516 -0.32738 0.13531 -0.5004 c0.11359 -0.097208 0.27 -0.1276 0.4118 -0.080196 c0.11359 0.022402 0.201 0.11279 0.2198 0.227 c0.015391 0.1108 0.023184 0.2224 0.023184 0.3344 c0.004004 0.392 0.0067968 0.7842 0.0048046 1.1762 c-0.0030078 0.617 -0.0086132 1.2332 -0.017012 1.849 c-0.004004 0.0742 -0.013809 0.14801 -0.029414 0.2206 c-0.023204 0.093204 -0.1052 0.16 -0.201 0.16359 c-0.13961 0.018809 -0.2798 -0.0292 -0.37862 -0.1292 c-0.0308 -0.12279 -0.057598 -0.26958 -0.1052 -0.4096 c-0.05 -0.14061 -0.1092 -0.278 -0.17699 -0.4108 c-0.058008 -0.1168 -0.12301 -0.2298 -0.19461 -0.33862 c-0.13279 -0.207 -0.3444 -0.3508 -0.5858 -0.398 c-0.1626 -0.041796 -0.3284 -0.07 -0.4956 -0.0842 c-0.7092 -0.0358 -1.419 -0.03461 -2.1288 -0.02461 c-0.096406 -0.011406 -0.19221 0.025 -0.25702 0.097208 c-0.040606 0.1016 -0.0542 0.2122 -0.0392 0.3206 c-0.0009961 0.9152 -0.0009961 1.8304 0 2.7454 c0 0.8404 0.00080078 1.6808 0.0024024 2.5214 c0 0.13039 0.011602 0.2612 0.022598 0.3912 c0.0051954 0.0558 0.016992 0.1108 0.03459 0.164 c0.025996 0.090996 0.084804 0.1692 0.1652 0.2192 c0.1566 0.1034 0.3382 0.1624 0.5256 0.1708 c0.11221 0 0.2242 0.0033984 0.3366 0.002207 c0.8592 -0.0096094 1.7182 -0.021016 2.5774 -0.028808 c0.2984 -0.014004 0.595 -0.054394 0.8864 -0.12059 c0.2402 -0.049004 0.4594 -0.1718 0.62638 -0.3512 c0.16061 -0.1568 0.2966 -0.3368 0.4036 -0.5342 c0.0842 -0.1658 0.1708 -0.3314 0.258 -0.5004 c0.16721 -0.10039 0.3796 -0.085586 0.53122 0.037422 c0.004004 0.055196 0.004004 0.1108 0 0.166 c-0.066602 0.4428 -0.136 0.885 -0.204 1.3274 c-0.0061914 0.12461 -0.068984 0.2396 -0.17059 0.3122 c-0.098008 0.010605 -0.2264 0.03 -0.3554 0.036602 c-0.3538 0.018594 -0.70702 0.0292 -1.0608 0.066796 c-0.3906 0.039804 -0.7842 0.036796 -1.1742 -0.009004 c-0.2034 -0.022794 -0.409 -0.033788 -0.6138 -0.036992 c-1.1018 -0.017598 -2.2036 -0.035 -3.3056 -0.04461 c-0.859 -0.007207 -1.7184 -0.002207 -2.5776 -0.0052148 c-0.149 0 -0.29782 -0.011406 -0.44662 -0.021016 c-0.0742 -0.016406 -0.1318 -0.075 -0.14719 -0.14939 c-0.028204 -0.1266 -0.015996 -0.259 0.035196 -0.3784 c0.050606 -0.057598 0.12201 -0.092208 0.19842 -0.096406 c0.14881 -0.012207 0.2998 -0.013203 0.446 -0.03961 c0.17 -0.027402 0.3144 -0.139 0.384 -0.2964 c0.084004 -0.1676 0.13141 -0.3512 0.1392 -0.5384 c0.013008 -0.7844 0.031016 -1.5686 0.039218 -2.3528 c0.0082032 -0.803 -0.016191 -1.6072 0.017813 -2.4088 c0.023808 -0.56 0.042012 -1.1192 0.038008 -1.679 c-0.0009961 -0.2046 -0.02959 -0.4088 -0.039394 -0.61342 c-0.02 -0.4102 -0.048594 -0.8202 -0.050586 -1.2308 c-0.0035938 -0.7842 0.01041 -1.5686 0.013809 -2.3532 c0.0038086 -0.18641 -0.0031836 -0.373 -0.021192 -0.55862 c-0.015391 -0.2532 -0.20638 -0.4606 -0.45738 -0.4968 c-0.109 -0.025 -0.2194 -0.044394 -0.33 -0.063204 c-0.11039 -0.018594 -0.2188 -0.035196 -0.31978 -0.051192 c-0.104 -0.1432 -0.12301 -0.33122 -0.049804 -0.4922 c0.043398 -0.028808 0.090996 -0.0508 0.141 -0.065196 c0.12961 -0.016992 0.26 -0.025996 0.3906 -0.026602 c0.5418 -0.0016016 1.0836 0.0025976 1.6252 0.0024024 c0.9338 0 1.8676 -0.00080078 2.8014 -0.0025976 c0.037402 0 0.074804 -0.0014063 0.11221 0 c1.2698 0.0056054 2.5398 0.011602 3.8096 0.018008 c0.074394 -0.0014063 0.14879 0.0071876 0.22078 0.02539 c0.053398 0.024004 0.10301 0.055606 0.14721 0.093614 c0.019805 0.087792 0.045196 0.17719 0.059804 0.26838 c0.079004 0.4972 0.15621 0.9948 0.2314 1.4932 c0.00039062 0.036992 -0.004004 0.073984 -0.013203 0.10998 c-0.017793 0.073594 -0.072402 0.13279 -0.14439 0.15639 c-0.13359 0.043204 -0.2794 0.026406 -0.3996 -0.046386 c-0.10881 -0.2314 -0.2162 -0.49 -0.348 -0.7346 c-0.18699 -0.371 -0.50138 -0.66218 -0.8854 -0.8202 c-0.049804 -0.0258 -0.1026 -0.044804 -0.1574 -0.057012 c-0.3112 -0.061406 -0.626 -0.10441 -0.9424 -0.12861 c-0.8412 0 -1.681 0 -2.5214 0.0019922 c-0.12859 -0.012793 -0.2584 0.0056054 -0.3784 0.054004 c-0.062598 0.045996 -0.096192 0.12139 -0.088594 0.19859 c-0.0067968 0.7282 -0.016602 1.4566 -0.017402 2.185 c0 0.99 0.0051954 1.9796 0.0071876 2.9696 c-0.010391 0.2228 0.0016016 0.446 0.0358 0.66638 c0.049394 0.031192 0.10359 0.053594 0.16059 0.065996 c0.673 -0.002207 1.3446 -0.0030078 2.0166 -0.019805 c0.2422 -0.013809 0.4834 -0.041816 0.7222 -0.084218 c0.285 -0.032598 0.5322 -0.2118 0.65202 -0.4724 c0.085196 -0.18641 0.15859 -0.3782 0.2192 -0.5742 z M29.997700000000002 19.985195 c-0.14461 0.0016016 -0.28296 -0.05873 -0.37996 -0.16594 c-0.046406 -0.11221 -0.031016 -0.2406 0.040782 -0.3384 c0.1208 -0.084394 0.2564 -0.1452 0.3996 -0.1792 c0.14141 -0.058204 0.2432 -0.1848 0.2692 -0.3354 c0.020196 -0.090996 0.029394 -0.1842 0.027794 -0.2772 c-0.043204 -1.4192 0.042188 -2.8372 0.030782 -4.256 c-0.017598 -0.5788 0.0035938 -1.158 0.062988 -1.7338 c0.0091992 -0.093008 0.0075976 -0.18682 -0.0048046 -0.27942 c-0.07 -0.762 -0.088008 -1.5278 -0.053808 -2.2924 c0.020996 -0.859 0.0051954 -1.7176 -0.011406 -2.576 c-0.0014063 -0.13061 -0.013398 -0.2608 -0.036192 -0.3894 c-0.0208 -0.1434 -0.1068 -0.269 -0.2328 -0.3402 l-0.4416 -0.077598 c-0.0858 -0.12779 -0.13061 -0.27898 -0.1282 -0.43298 c0.019609 -0.075996 0.078204 -0.1358 0.15359 -0.15699 c0.087598 -0.03039 0.17859 -0.05039 0.2708 -0.05959 c0.1684 -0.0098046 0.3366 -0.0033984 0.5048 -0.0048046 c0.9148 -0.007207 1.8298 -0.014609 2.7446 -0.022402 c0.1308 -0.019199 0.2642 0.0048046 0.3802 0.068204 c0.076992 0.080996 0.1266 0.18379 0.14221 0.2944 c0.026992 0.1134 -0.032012 0.22958 -0.13941 0.27458 c-0.06961 0.026192 -0.14102 0.047188 -0.21362 0.063184 c-0.154 0.02961 -0.301 0.088614 -0.43298 0.17381 c-0.12641 0.2226 -0.18941 0.476 -0.18182 0.732 c0 0.3728 0.020996 0.746 0.036602 1.1186 c0.0082032 0.18619 0.039004 0.3718 0.039004 0.5576 c0 1.699 -0.0067968 3.398 -0.005 5.097 c0 0.56 0.023008 1.1198 0.032012 1.68 c-0.0056054 0.3732 0.017793 0.7466 0.069786 1.1162 c0.02961 0.2226 0.025606 0.4484 -0.012402 0.6696 c-0.032206 0.2404 -0.055214 0.48238 -0.07662 0.72398 c-0.020996 0.14939 -0.0058008 0.3018 0.04459 0.4442 c0.065996 0.11279 0.17119 0.1976 0.2958 0.2382 c0.2646 0.097402 0.55102 0.1208 0.828 0.067402 c0.3132 -0.051406 0.6308 -0.072012 0.948 -0.061212 c0.5228 -0.0014063 1.0458 -0.0056054 1.5684 0 c0.299 -0.002207 0.596 -0.047812 0.8818 -0.13541 c0.08961 -0.025996 0.17701 -0.059004 0.2612 -0.098808 c0.3142 -0.131 0.563 -0.38218 0.69102 -0.6978 c0.063008 -0.15561 0.13781 -0.3058 0.2088 -0.4578 c0.011992 -0.017598 0.025996 -0.033594 0.041992 -0.047598 c0.11199 -0.098008 0.262 -0.14141 0.40898 -0.11801 c0.11381 0.019395 0.19941 0.1142 0.20702 0.2294 c0.0011914 0.074394 -0.0074024 0.14859 -0.025606 0.2208 c-0.13859 0.426 -0.23638 0.8644 -0.292 1.309 c-0.0069922 0.05539 -0.020996 0.10979 -0.041992 0.16178 c-0.054394 0.164 -0.1968 0.2832 -0.3678 0.308 c-0.1482 0.018008 -0.2974 0.026212 -0.4466 0.024218 c-2.3902 -0.0041992 -4.7802 -0.0098046 -7.1702 -0.016602 c-0.2986 0 -0.59718 -0.0093946 -0.89558 -0.021192 z M39.8577 19.985195 c-0.14461 0.0016016 -0.28296 -0.05873 -0.37996 -0.16594 c-0.046406 -0.11221 -0.031016 -0.2406 0.040782 -0.3384 c0.1208 -0.084394 0.2564 -0.1452 0.3996 -0.1792 c0.14141 -0.058204 0.2432 -0.1848 0.2692 -0.3354 c0.020196 -0.090996 0.029394 -0.1842 0.027794 -0.2772 c-0.043204 -1.4192 0.042188 -2.8372 0.030782 -4.256 c-0.017598 -0.5788 0.0035938 -1.158 0.062988 -1.7338 c0.0091992 -0.093008 0.0075976 -0.18682 -0.0048046 -0.27942 c-0.07 -0.762 -0.088008 -1.5278 -0.053808 -2.2924 c0.020996 -0.859 0.0051954 -1.7176 -0.011406 -2.576 c-0.0014063 -0.13061 -0.013398 -0.2608 -0.036192 -0.3894 c-0.0208 -0.1434 -0.1068 -0.269 -0.2328 -0.3402 l-0.4416 -0.077598 c-0.0858 -0.12779 -0.13061 -0.27898 -0.1282 -0.43298 c0.019609 -0.075996 0.078204 -0.1358 0.15359 -0.15699 c0.087598 -0.03039 0.17859 -0.05039 0.2708 -0.05959 c0.1684 -0.0098046 0.3366 -0.0033984 0.5048 -0.0048046 c0.9148 -0.007207 1.8298 -0.014609 2.7446 -0.022402 c0.1308 -0.019199 0.2642 0.0048046 0.3802 0.068204 c0.076992 0.080996 0.1266 0.18379 0.14221 0.2944 c0.026992 0.1134 -0.032012 0.22958 -0.13941 0.27458 c-0.06961 0.026192 -0.14102 0.047188 -0.21362 0.063184 c-0.154 0.02961 -0.301 0.088614 -0.43298 0.17381 c-0.12641 0.2226 -0.18941 0.476 -0.18182 0.732 c0 0.3728 0.020996 0.746 0.036602 1.1186 c0.0082032 0.18619 0.039004 0.3718 0.039004 0.5576 c0 1.699 -0.0067968 3.398 -0.005 5.097 c0 0.56 0.023008 1.1198 0.032012 1.68 c-0.0056054 0.3732 0.017793 0.7466 0.069786 1.1162 c0.02961 0.2226 0.025606 0.4484 -0.012402 0.6696 c-0.032206 0.2404 -0.055214 0.48238 -0.07662 0.72398 c-0.020996 0.14939 -0.0058008 0.3018 0.04459 0.4442 c0.065996 0.11279 0.17119 0.1976 0.2958 0.2382 c0.2646 0.097402 0.55102 0.1208 0.828 0.067402 c0.3132 -0.051406 0.6308 -0.072012 0.948 -0.061212 c0.5228 -0.0014063 1.0458 -0.0056054 1.5684 0 c0.299 -0.002207 0.596 -0.047812 0.8818 -0.13541 c0.08961 -0.025996 0.17701 -0.059004 0.2612 -0.098808 c0.3142 -0.131 0.563 -0.38218 0.69102 -0.6978 c0.063008 -0.15561 0.13781 -0.3058 0.2088 -0.4578 c0.011992 -0.017598 0.025996 -0.033594 0.041992 -0.047598 c0.11199 -0.098008 0.262 -0.14141 0.40898 -0.11801 c0.11381 0.019395 0.19941 0.1142 0.20702 0.2294 c0.0011914 0.074394 -0.0074024 0.14859 -0.025606 0.2208 c-0.13859 0.426 -0.23638 0.8644 -0.292 1.309 c-0.0069922 0.05539 -0.020996 0.10979 -0.041992 0.16178 c-0.054394 0.164 -0.1968 0.2832 -0.3678 0.308 c-0.1482 0.018008 -0.2974 0.026212 -0.4466 0.024218 c-2.3902 -0.0041992 -4.7802 -0.0098046 -7.1702 -0.016602 c-0.2986 0 -0.59718 -0.0093946 -0.89558 -0.021192 z M50.7006 10.1356 c-0.0069922 -0.5946 -0.058398 -1.1902 -0.092208 -1.8194 c-0.1534 -0.203 -0.2788 -0.3896 -0.4254 -0.558 c-0.19619 -0.2258 -0.381 -0.4594 -0.56138 -0.6978 c-0.075 -0.088008 -0.15699 -0.16961 -0.2454 -0.24422 c-0.2382 -0.1108 -0.498 -0.1676 -0.7606 -0.16641 c-0.1108 -0.066796 -0.1708 -0.1934 -0.15221 -0.3214 c-0.011191 -0.095606 0.035214 -0.18861 0.11842 -0.2372 c0.4702 -0.05539 1.6506 -0.12359 2.0064 -0.115 c0.074804 -0.0030078 0.14961 0.00080078 0.22362 0.010996 c0.2772 0.041992 0.5574 0.059786 0.8374 0.053184 c0.0742 0.002207 0.14721 0.017207 0.2196 0.026212 c0.19141 0.1208 0.353 0.283 0.4734 0.4746 c0.3566 0.4798 0.705 0.9652 1.0666 1.441 c0.4064 0.5352 0.82602 1.0608 1.236 1.5934 c0.4666 0.6068 0.9362 1.2114 1.3908 1.8272 c0.3548 0.4806 0.6916 0.9748 1.0306 1.4662 c0.4996 0.7228 1.0574 1.401 1.605 2.087 c0.1632 0.2042 0.3294 0.4058 0.4992 0.6046 c0.04461 0.038204 0.094004 0.07041 0.14721 0.095606 c0.023594 -0.051796 0.04039 -0.1066 0.050196 -0.16279 c0.0053906 -0.3364 0.006582 -0.67282 0.0063868 -1.0094 c0 -1.401 -0.0014063 -2.802 -0.0038086 -4.203 c-0.0024024 -0.9152 -0.0093946 -1.8296 -0.015801 -2.7458 c0.0011914 -0.11221 -0.0058008 -0.2242 -0.020996 -0.3352 c-0.017207 -0.16119 -0.094004 -0.3102 -0.21542 -0.4176 l-0.4962 -0.099004 c-0.15141 -0.10141 -0.2032 -0.3 -0.121 -0.4626 c0.026406 -0.071796 0.089004 -0.12439 0.16439 -0.13799 c0.072206 -0.018008 0.1466 -0.027206 0.221 -0.027402 c0.635 0.0011914 1.2698 0.0045898 1.9046 0.010195 c0.074394 0.0030078 0.14779 0.017207 0.21798 0.042012 c0.072206 0.02539 0.12561 0.086796 0.141 0.1618 c0.033204 0.1126 0.023204 0.2336 -0.027988 0.3394 c-0.04 0.02 -0.08961 0.066406 -0.13781 0.065 c-0.194 -0.009004 -0.3864 0.04 -0.5524 0.14119 c-0.092402 0.17721 -0.14121 0.3738 -0.14262 0.57362 c-0.0080078 0.1492 -0.0068164 0.2988 -0.0068164 0.4482 c0 1.3824 0.0035938 2.7648 -0.0016016 4.1468 c-0.0043946 1.1396 -0.018789 2.279 -0.030996 3.4182 c0.0033984 0.1868 -0.0056054 0.37378 -0.027012 0.5594 c-0.046796 0.427 -0.06459 0.8568 -0.053184 1.2862 c-0.007207 0.747 -0.015801 1.4942 -0.025996 2.2412 c0.013398 0.11859 -0.016406 0.23798 -0.084004 0.33638 c-0.15539 0.078008 -0.32378 0.1266 -0.4968 0.14359 c-0.10039 -0.009004 -0.19359 -0.056212 -0.2604 -0.13182 c-0.116 -0.12119 -0.2258 -0.24798 -0.3292 -0.3802 c-0.13381 -0.17939 -0.25842 -0.36638 -0.37842 -0.55498 c-0.4162 -0.6432 -0.88058 -1.2536 -1.3894 -1.8264 c-0.2726 -0.3076 -0.525 -0.6326 -0.7554 -0.9728 c-0.3002 -0.4732 -0.6248 -0.9304 -0.97202 -1.3702 c-0.215 -0.2584 -0.4372 -0.511 -0.6446 -0.7754 c-0.3226 -0.4114 -0.6396 -0.8272 -0.95138 -1.2472 c-0.3122 -0.4194 -0.615 -0.84558 -0.9224 -1.2686 c-0.4176 -0.5738 -0.836 -1.147 -1.255 -1.7194 c-0.04039 -0.037598 -0.086796 -0.068398 -0.13719 -0.091192 c-0.041992 0.16801 -0.045586 0.3434 -0.010781 0.513 c0.047794 0.3332 0.050996 0.6712 0.0095898 1.0052 c-0.02 0.1292 -0.024004 0.2604 -0.011797 0.39058 c0.044394 0.4838 0.057188 0.9696 0.038788 1.455 c0.018398 0.4108 0.003789 0.8224 -0.044004 1.2308 c-0.0098046 0.092792 -0.012598 0.18639 -0.0085938 0.27958 c-0.002207 0.7472 -0.0038086 1.4944 -0.0048046 2.2414 c-0.0066016 0.1308 -0.002793 0.2616 0.011211 0.3916 c0.061192 0.482 0.084786 0.96798 0.070586 1.4536 c-0.00060546 0.1118 0.0045898 0.2238 0.015391 0.3352 c0.028204 0.1698 0.1518 0.3084 0.31718 0.3558 c0.072598 0.016191 0.14721 0.017188 0.22202 0.028594 c0.0542 0.0082032 0.1076 0.020996 0.15561 0.031796 c0.1616 0.14721 0.1124 0.3106 0.049004 0.4682 c-0.02461 0.04961 -0.068808 0.087012 -0.12182 0.1032 c-0.1082 0.027206 -0.219 0.041602 -0.3304 0.043008 c-0.5606 0.002793 -1.121 0 -1.6812 -0.0017969 c-0.13439 0.010605 -0.26798 -0.026602 -0.3776 -0.1052 c-0.082402 -0.15301 -0.084004 -0.33702 -0.0043946 -0.4914 c0.1624 -0.1076 0.3758 -0.1218 0.5556 -0.2164 c0.109 -0.076602 0.1766 -0.19881 0.18359 -0.33182 c0.095196 -0.7036 0.1268 -1.4146 0.094804 -2.124 c-0.058594 -0.673 -0.040196 -1.3432 -0.0492 -2.015 c-0.0088086 -0.2428 0.0039844 -0.4858 0.038378 -0.7262 c0.016992 -0.12961 0.023398 -0.26042 0.019395 -0.39122 c0.0011914 -1.1394 0.010996 -2.279 -0.0033984 -3.4184 z M69.0748 11.4336 c0.052794 -0.1642 0.088516 -0.32738 0.13531 -0.5004 c0.11359 -0.097208 0.27 -0.1276 0.4118 -0.080196 c0.11359 0.022402 0.201 0.11279 0.2198 0.227 c0.015391 0.1108 0.023184 0.2224 0.023184 0.3344 c0.004004 0.392 0.0067968 0.7842 0.0048046 1.1762 c-0.0030078 0.617 -0.0086132 1.2332 -0.017012 1.849 c-0.004004 0.0742 -0.013809 0.14801 -0.029414 0.2206 c-0.023204 0.093204 -0.1052 0.16 -0.201 0.16359 c-0.13961 0.018809 -0.2798 -0.0292 -0.37862 -0.1292 c-0.0308 -0.12279 -0.057598 -0.26958 -0.1052 -0.4096 c-0.05 -0.14061 -0.1092 -0.278 -0.17699 -0.4108 c-0.058008 -0.1168 -0.12301 -0.2298 -0.19461 -0.33862 c-0.13279 -0.207 -0.3444 -0.3508 -0.5858 -0.398 c-0.1626 -0.041796 -0.3284 -0.07 -0.4956 -0.0842 c-0.7092 -0.0358 -1.419 -0.03461 -2.1288 -0.02461 c-0.096406 -0.011406 -0.19221 0.025 -0.25702 0.097208 c-0.040606 0.1016 -0.0542 0.2122 -0.0392 0.3206 c-0.0009961 0.9152 -0.0009961 1.8304 0 2.7454 c0 0.8404 0.00080078 1.6808 0.0024024 2.5214 c0 0.13039 0.011602 0.2612 0.022598 0.3912 c0.0051954 0.0558 0.016992 0.1108 0.03459 0.164 c0.025996 0.090996 0.084804 0.1692 0.1652 0.2192 c0.1566 0.1034 0.3382 0.1624 0.5256 0.1708 c0.11221 0 0.2242 0.0033984 0.3366 0.002207 c0.8592 -0.0096094 1.7182 -0.021016 2.5774 -0.028808 c0.2984 -0.014004 0.595 -0.054394 0.8864 -0.12059 c0.2402 -0.049004 0.4594 -0.1718 0.62638 -0.3512 c0.16061 -0.1568 0.2966 -0.3368 0.4036 -0.5342 c0.0842 -0.1658 0.1708 -0.3314 0.258 -0.5004 c0.16721 -0.10039 0.3796 -0.085586 0.53122 0.037422 c0.004004 0.055196 0.004004 0.1108 0 0.166 c-0.066602 0.4428 -0.136 0.885 -0.204 1.3274 c-0.0061914 0.12461 -0.068984 0.2396 -0.17059 0.3122 c-0.098008 0.010605 -0.2264 0.03 -0.3554 0.036602 c-0.3538 0.018594 -0.70702 0.0292 -1.0608 0.066796 c-0.3906 0.039804 -0.7842 0.036796 -1.1742 -0.009004 c-0.2034 -0.022794 -0.409 -0.033788 -0.6138 -0.036992 c-1.1018 -0.017598 -2.2036 -0.035 -3.3056 -0.04461 c-0.859 -0.007207 -1.7184 -0.002207 -2.5776 -0.0052148 c-0.149 0 -0.29782 -0.011406 -0.44662 -0.021016 c-0.0742 -0.016406 -0.1318 -0.075 -0.14719 -0.14939 c-0.028204 -0.1266 -0.015996 -0.259 0.035196 -0.3784 c0.050606 -0.057598 0.12201 -0.092208 0.19842 -0.096406 c0.14881 -0.012207 0.2998 -0.013203 0.446 -0.03961 c0.17 -0.027402 0.3144 -0.139 0.384 -0.2964 c0.084004 -0.1676 0.13141 -0.3512 0.1392 -0.5384 c0.013008 -0.7844 0.031016 -1.5686 0.039218 -2.3528 c0.0082032 -0.803 -0.016191 -1.6072 0.017813 -2.4088 c0.023808 -0.56 0.042012 -1.1192 0.038008 -1.679 c-0.0009961 -0.2046 -0.02959 -0.4088 -0.039394 -0.61342 c-0.02 -0.4102 -0.048594 -0.8202 -0.050586 -1.2308 c-0.0035938 -0.7842 0.01041 -1.5686 0.013809 -2.3532 c0.0038086 -0.18641 -0.0031836 -0.373 -0.021192 -0.55862 c-0.015391 -0.2532 -0.20638 -0.4606 -0.45738 -0.4968 c-0.109 -0.025 -0.2194 -0.044394 -0.33 -0.063204 c-0.11039 -0.018594 -0.2188 -0.035196 -0.31978 -0.051192 c-0.104 -0.1432 -0.12301 -0.33122 -0.049804 -0.4922 c0.043398 -0.028808 0.090996 -0.0508 0.141 -0.065196 c0.12961 -0.016992 0.26 -0.025996 0.3906 -0.026602 c0.5418 -0.0016016 1.0836 0.0025976 1.6252 0.0024024 c0.9338 0 1.8676 -0.00080078 2.8014 -0.0025976 c0.037402 0 0.074804 -0.0014063 0.11221 0 c1.2698 0.0056054 2.5398 0.011602 3.8096 0.018008 c0.074394 -0.0014063 0.14879 0.0071876 0.22078 0.02539 c0.053398 0.024004 0.10301 0.055606 0.14721 0.093614 c0.019805 0.087792 0.045196 0.17719 0.059804 0.26838 c0.079004 0.4972 0.15621 0.9948 0.2314 1.4932 c0.00039062 0.036992 -0.004004 0.073984 -0.013203 0.10998 c-0.017793 0.073594 -0.072402 0.13279 -0.14439 0.15639 c-0.13359 0.043204 -0.2794 0.026406 -0.3996 -0.046386 c-0.10881 -0.2314 -0.2162 -0.49 -0.348 -0.7346 c-0.18699 -0.371 -0.50138 -0.66218 -0.8854 -0.8202 c-0.049804 -0.0258 -0.1026 -0.044804 -0.1574 -0.057012 c-0.3112 -0.061406 -0.626 -0.10441 -0.9424 -0.12861 c-0.8412 0 -1.681 0 -2.5214 0.0019922 c-0.12859 -0.012793 -0.2584 0.0056054 -0.3784 0.054004 c-0.062598 0.045996 -0.096192 0.12139 -0.088594 0.19859 c-0.0067968 0.7282 -0.016602 1.4566 -0.017402 2.185 c0 0.99 0.0051954 1.9796 0.0071876 2.9696 c-0.010391 0.2228 0.0016016 0.446 0.0358 0.66638 c0.049394 0.031192 0.10359 0.053594 0.16059 0.065996 c0.673 -0.002207 1.3446 -0.0030078 2.0166 -0.019805 c0.2422 -0.013809 0.4834 -0.041816 0.7222 -0.084218 c0.285 -0.032598 0.5322 -0.2118 0.65202 -0.4724 c0.085196 -0.18641 0.15859 -0.3782 0.2192 -0.5742 z M72.8363 19.103 c-0.154 0.19061 -0.34168 0.21094 -0.60948 0.056544 c-0.025 -0.1024 -0.040606 -0.2068 -0.046796 -0.31218 c-0.0011914 -0.3176 0.014414 -0.635 0.046816 -0.951 c0.042206 -0.3334 0.043008 -0.6708 0.002207 -1.0046 c-0.017793 -0.2046 -0.0208 -0.41022 -0.0091992 -0.61522 c0.013008 -0.13619 0.12621 -0.2412 0.2632 -0.2436 c0.19 -0.034804 0.3814 0.0542 0.4776 0.2218 c0.066796 0.1124 0.1274 0.2284 0.18141 0.3474 c0.2984 0.6034 0.6518 1.178 1.0562 1.7162 c0.4814 0.677 1.1894 1.1588 1.9958 1.3584 c0.364 0.089394 0.7418 0.10619 1.1124 0.049786 c0.3368 -0.045 0.6498 -0.1982 0.8918 -0.4368 c0.47 -0.4352 0.79 -1.008 0.9148 -1.6362 c0.054394 -0.276 0.0458 -0.5608 -0.025 -0.833 c-0.059804 -0.3128 -0.1884 -0.6084 -0.3768 -0.8652 c-0.068204 -0.088204 -0.1458 -0.169 -0.2314 -0.2406 c-0.7068 -0.5532 -1.485 -1.0086 -2.3134 -1.3542 c-0.6116 -0.2322 -1.196 -0.5306 -1.7426 -0.89022 c-0.565 -0.4022 -1.045 -0.9122 -1.412 -1.5006 c-0.2004 -0.3164 -0.3418 -0.6666 -0.41718 -1.0334 c-0.1082 -0.454 -0.171 -0.9176 -0.1876 -1.384 c0.005 -0.4106 0.065 -0.81862 0.1784 -1.2134 c0.0408 -0.1634 0.10561 -0.3198 0.1924 -0.4642 c0.068204 -0.11141 0.12961 -0.2272 0.1966 -0.33942 c0.2952 -0.5016 0.7188 -0.9154 1.2272 -1.1988 c0.877 -0.4942 1.0204 -0.5004 1.9652 -0.52398 c0.7122 -0.016406 1.4186 0.13039 2.0654 0.42878 c0.272 0.12301 0.541 0.25362 0.8076 0.38862 c0.15561 0.090196 0.33362 0.13439 0.51342 0.12719 l0.3474 -0.2084 c0.091602 -0.036602 0.19641 -0.013809 0.2648 0.057382 c0.047598 0.056602 0.08 0.124 0.09461 0.19621 c0.013809 0.11119 0.018809 0.22318 0.014609 0.33518 c0 0.5418 -0.00060546 1.0836 -0.0016016 1.6256 c0.0019922 0.093204 -0.0038086 0.18621 -0.017402 0.27842 c-0.016602 0.05039 -0.04041 0.098184 -0.071212 0.14139 c-0.1842 0.083008 -0.397 0.073204 -0.5728 -0.026406 c-0.067794 -0.14939 -0.1452 -0.31798 -0.2208 -0.48718 c-0.3548 -0.7676 -0.9088 -1.426 -1.6048 -1.9064 c-0.12301 -0.084804 -0.2512 -0.1616 -0.384 -0.2302 c-0.4678 -0.2408 -0.99898 -0.3304 -1.5198 -0.2558 c-0.337 0.043008 -0.6462 0.2084 -0.8692 0.4648 c-0.116 0.12199 -0.21638 0.2578 -0.29898 0.4046 c-0.2638 0.4538 -0.4258 0.95942 -0.4748 1.482 c-0.051406 0.5092 0.1018 1.0182 0.4256 1.4146 c0.3904 0.5052 0.8968 0.9092 1.476 1.1776 c0.5814 0.2554 1.1654 0.50478 1.7456 0.76178 c1.0984 0.4484 2.029 1.2294 2.661 2.2334 c0.2486 0.3762 0.3926 0.8118 0.4168 1.262 c0.0035938 0.1492 0.010586 0.2986 0.016777 0.4478 c0.017793 0.9024 -0.22022 1.7914 -0.6864 2.5642 c-0.204 0.3372 -0.47862 0.6264 -0.8048 0.84782 c-0.6502 0.482 -1.4334 0.75138 -2.2426 0.77138 c-0.2426 0.0074024 -0.4858 0.0046094 -0.7286 0.0070118 c-0.8844 -0.0096094 -1.7442 -0.29102 -2.4634 -0.80562 c-0.1866 -0.12381 -0.3722 -0.24862 -0.5596 -0.37102 c-0.095996 -0.05961 -0.2076 -0.089004 -0.3206 -0.0842 c-0.09461 -0.0041992 -0.18602 0.03541 -0.24762 0.1074 c-0.035196 0.041992 -0.055996 0.097792 -0.091192 0.14059 z M82.35629999999999 19.103 c-0.154 0.19061 -0.34168 0.21094 -0.60948 0.056544 c-0.025 -0.1024 -0.040606 -0.2068 -0.046796 -0.31218 c-0.0011914 -0.3176 0.014414 -0.635 0.046816 -0.951 c0.042206 -0.3334 0.043008 -0.6708 0.002207 -1.0046 c-0.017793 -0.2046 -0.0208 -0.41022 -0.0091992 -0.61522 c0.013008 -0.13619 0.12621 -0.2412 0.2632 -0.2436 c0.19 -0.034804 0.3814 0.0542 0.4776 0.2218 c0.066796 0.1124 0.1274 0.2284 0.18141 0.3474 c0.2984 0.6034 0.6518 1.178 1.0562 1.7162 c0.4814 0.677 1.1894 1.1588 1.9958 1.3584 c0.364 0.089394 0.7418 0.10619 1.1124 0.049786 c0.3368 -0.045 0.6498 -0.1982 0.8918 -0.4368 c0.47 -0.4352 0.79 -1.008 0.9148 -1.6362 c0.054394 -0.276 0.0458 -0.5608 -0.025 -0.833 c-0.059804 -0.3128 -0.1884 -0.6084 -0.3768 -0.8652 c-0.068204 -0.088204 -0.1458 -0.169 -0.2314 -0.2406 c-0.7068 -0.5532 -1.485 -1.0086 -2.3134 -1.3542 c-0.6116 -0.2322 -1.196 -0.5306 -1.7426 -0.89022 c-0.565 -0.4022 -1.045 -0.9122 -1.412 -1.5006 c-0.2004 -0.3164 -0.3418 -0.6666 -0.41718 -1.0334 c-0.1082 -0.454 -0.171 -0.9176 -0.1876 -1.384 c0.005 -0.4106 0.065 -0.81862 0.1784 -1.2134 c0.0408 -0.1634 0.10561 -0.3198 0.1924 -0.4642 c0.068204 -0.11141 0.12961 -0.2272 0.1966 -0.33942 c0.2952 -0.5016 0.7188 -0.9154 1.2272 -1.1988 c0.877 -0.4942 1.0204 -0.5004 1.9652 -0.52398 c0.7122 -0.016406 1.4186 0.13039 2.0654 0.42878 c0.272 0.12301 0.541 0.25362 0.8076 0.38862 c0.15561 0.090196 0.33362 0.13439 0.51342 0.12719 l0.3474 -0.2084 c0.091602 -0.036602 0.19641 -0.013809 0.2648 0.057382 c0.047598 0.056602 0.08 0.124 0.09461 0.19621 c0.013809 0.11119 0.018809 0.22318 0.014609 0.33518 c0 0.5418 -0.00060546 1.0836 -0.0016016 1.6256 c0.0019922 0.093204 -0.0038086 0.18621 -0.017402 0.27842 c-0.016602 0.05039 -0.04041 0.098184 -0.071212 0.14139 c-0.1842 0.083008 -0.397 0.073204 -0.5728 -0.026406 c-0.067794 -0.14939 -0.1452 -0.31798 -0.2208 -0.48718 c-0.3548 -0.7676 -0.9088 -1.426 -1.6048 -1.9064 c-0.12301 -0.084804 -0.2512 -0.1616 -0.384 -0.2302 c-0.4678 -0.2408 -0.99898 -0.3304 -1.5198 -0.2558 c-0.337 0.043008 -0.6462 0.2084 -0.8692 0.4648 c-0.116 0.12199 -0.21638 0.2578 -0.29898 0.4046 c-0.2638 0.4538 -0.4258 0.95942 -0.4748 1.482 c-0.051406 0.5092 0.1018 1.0182 0.4256 1.4146 c0.3904 0.5052 0.8968 0.9092 1.476 1.1776 c0.5814 0.2554 1.1654 0.50478 1.7456 0.76178 c1.0984 0.4484 2.029 1.2294 2.661 2.2334 c0.2486 0.3762 0.3926 0.8118 0.4168 1.262 c0.0035938 0.1492 0.010586 0.2986 0.016777 0.4478 c0.017793 0.9024 -0.22022 1.7914 -0.6864 2.5642 c-0.204 0.3372 -0.47862 0.6264 -0.8048 0.84782 c-0.6502 0.482 -1.4334 0.75138 -2.2426 0.77138 c-0.2426 0.0074024 -0.4858 0.0046094 -0.7286 0.0070118 c-0.8844 -0.0096094 -1.7442 -0.29102 -2.4634 -0.80562 c-0.1866 -0.12381 -0.3722 -0.24862 -0.5596 -0.37102 c-0.095996 -0.05961 -0.2076 -0.089004 -0.3206 -0.0842 c-0.09461 -0.0041992 -0.18602 0.03541 -0.24762 0.1074 c-0.035196 0.041992 -0.055996 0.097792 -0.091192 0.14059 z"/></g>
			</g>
		</svg>
	